<svg width="77" height="24" viewBox="0 0 77 24" fill="none" xmlns="http://www.w3.org/2000/svg">
<path fill-rule="evenodd" clip-rule="evenodd" d="M11.9279 10.5413C13.5638 11.5888 14.5549 13.5562 14.1704 15.7158C13.819 17.6848 12.2329 19.3058 10.2738 19.7168C7.04177 20.3964 4.17275 17.8721 4.17275 14.7495V7.07723V4.17177C4.17275 1.86793 2.30481 0 0.000976562 0V14.7893H0.002634C0.00429144 20.5058 5.17384 24.9892 11.1191 23.8107C14.608 23.1196 17.4455 20.3268 18.1996 16.8511C19.4991 10.8645 14.9743 5.57725 9.21301 5.57725C9.21301 7.58606 10.2357 9.45731 11.9279 10.5413Z" fill="url(#paint0_linear_6676_3315)"/>
<path fill-rule="evenodd" clip-rule="evenodd" d="M48.6255 6.90229C49.7774 6.90229 50.7818 7.1277 51.6403 7.57852C52.4989 8.031 53.1851 8.59287 53.6989 9.26579V7.14096H55.0944C56.0094 7.14096 56.7519 7.88349 56.7519 8.7984V21.7728H53.6989V19.5949C53.1851 20.2861 52.4856 20.8612 51.6006 21.3203C50.7155 21.7811 49.7061 22.0115 48.5724 22.0115C47.3161 22.0115 46.1658 21.6883 45.1216 21.0419C44.0758 20.3955 43.2487 19.4938 42.6388 18.3336C42.0272 17.1751 41.7222 15.8591 41.7222 14.3906C41.7222 12.9204 42.0272 11.6194 42.6388 10.4873C43.2487 9.35364 44.0808 8.47354 45.1349 7.84537C46.1874 7.2172 47.3509 6.90229 48.6255 6.90229ZM26.4306 2.12207C27.3471 2.12207 28.088 2.8646 28.088 3.77951V9.31867C28.6018 8.61094 29.3062 8.03084 30.1996 7.57836C31.0929 7.12753 32.0891 6.90212 33.1863 6.90212C34.4791 6.90212 35.6476 7.21206 36.6918 7.83194C37.7359 8.45183 38.5597 9.33193 39.1613 10.4739C39.763 11.6159 40.0646 12.9203 40.0646 14.3904C40.0646 15.8606 39.763 17.1749 39.1613 18.3335C38.5597 19.4937 37.7326 20.3953 36.6785 21.0417C35.626 21.6881 34.4608 22.0113 33.1863 22.0113C32.0543 22.0113 31.0498 21.7892 30.1731 21.3467C29.2963 20.9058 28.6018 20.339 28.088 19.6478V21.7727H25.0615V2.12207H26.4306ZM76.4765 7.14079V21.7727H73.4501V7.14079H76.4765ZM65.7922 6.90278C66.9425 6.90278 67.9734 7.14145 68.885 7.6188C69.7966 8.09614 70.5093 8.80552 71.0231 9.74363C71.5352 10.6817 71.7921 11.8138 71.7921 13.143V21.7717H70.4496C69.5347 21.7717 68.7922 21.0308 68.7922 20.1142V13.5939C68.7922 12.2845 68.464 11.2784 67.8093 10.579C67.1546 9.8812 66.2596 9.53148 65.1276 9.53148C63.9939 9.53148 63.0956 9.8812 62.4326 10.579C61.768 11.2784 61.4365 12.2845 61.4365 13.5939V21.7717H58.41V7.14146H61.4365V8.81381C61.932 8.21216 62.5652 7.7431 63.3359 7.40665C64.1049 7.07019 64.9237 6.90278 65.7922 6.90278ZM49.2636 9.53098C48.4846 9.53098 47.7586 9.72159 47.0857 10.1011C46.4128 10.4824 45.8692 11.0409 45.4531 11.7752C45.0371 12.5094 44.8283 13.3812 44.8283 14.3906C44.8283 15.4 45.0371 16.285 45.4531 17.0458C45.8692 17.8066 46.4178 18.3867 47.099 18.7845C47.7802 19.1839 48.5028 19.3828 49.2636 19.3828C50.0426 19.3828 50.7685 19.1872 51.4415 18.7977C52.1144 18.4099 52.658 17.8381 53.074 17.0856C53.49 16.3331 53.6989 15.453 53.6989 14.4436C53.6989 13.4342 53.49 12.5575 53.074 11.8149C52.658 11.0707 52.1144 10.5039 51.4415 10.1144C50.7685 9.72656 50.0426 9.53098 49.2636 9.53098ZM32.5233 9.53082C31.7625 9.53082 31.0399 9.7264 30.3587 10.1142C29.6775 10.5037 29.1289 11.0706 28.7129 11.8148C28.2968 12.5573 28.088 13.4341 28.088 14.4435C28.088 15.4528 28.2968 16.3329 28.7129 17.0854C29.1289 17.8379 29.6775 18.4097 30.3587 18.7976C31.0399 19.1871 31.7625 19.3826 32.5233 19.3826C33.3023 19.3826 34.0316 19.1837 34.7144 18.7843C35.3956 18.3865 35.9443 17.8064 36.3603 17.0456C36.7763 16.2849 36.9851 15.3998 36.9851 14.3904C36.9851 13.381 36.7763 12.5092 36.3603 11.775C35.9443 11.0407 35.3956 10.4822 34.7144 10.101C34.0316 9.72142 33.3023 9.53082 32.5233 9.53082ZM74.8198 2.12207C75.721 2.12207 76.455 2.8426 76.4767 3.73866L76.4772 3.77951V5.14855H73.4507V2.12207H74.8198Z" fill="black"/>
<defs>
<linearGradient id="paint0_linear_6676_3315" x1="3.78464" y1="3.25456e-07" x2="19.4018" y2="20.3449" gradientUnits="userSpaceOnUse">
<stop stop-color="#00B0FF"/>
<stop offset="0.524899" stop-color="#3D5AFE"/>
<stop offset="1" stop-color="#5444F2"/>
</linearGradient>
</defs>
</svg>
